<svg width="36" height="24" viewBox="0 0 36 24" fill="none" xmlns="http://www.w3.org/2000/svg">
<path d="M9.22969 0.842226V7.25945C9.22969 8.66472 8.82937 9.74096 8.02892 10.4881C7.22838 11.2441 6.12313 11.6221 4.71317 11.6221C3.90351 11.6221 3.16216 11.5109 2.48903 11.2886C1.81582 11.0751 1.24272 10.7682 0.769752 10.368L1.62939 8.76703C2.49355 9.45187 3.50329 9.79432 4.6586 9.79432C5.45905 9.79432 6.05039 9.59862 6.43245 9.2073C6.82355 8.80706 7.01919 8.19335 7.01919 7.36618V6.7925C6.38239 7.55738 5.48182 7.93987 4.31747 7.93987C3.10758 7.93987 2.1752 7.60633 1.52023 6.93926C0.874311 6.26326 0.551434 5.29384 0.551434 4.03083V0.842226H2.76193V3.89741C2.76193 4.62677 2.93932 5.17819 3.29409 5.55175C3.64886 5.92531 4.14912 6.11209 4.79504 6.11209C5.47729 6.11209 6.01849 5.91639 6.4188 5.52507C6.81903 5.13375 7.01919 4.54222 7.01919 3.75066V0.842226H9.22969ZM19.22 9.38074C18.7651 9.68317 18.192 9.91882 17.5007 10.0878C16.8185 10.2569 16.0907 10.3413 15.3175 10.3413C14.3532 10.3413 13.5345 10.2257 12.8614 9.99444C12.1882 9.7543 11.6788 9.42518 11.3332 9.00718C10.9874 8.58025 10.8146 8.09554 10.8146 7.55296C10.8146 7.05491 10.9556 6.61464 11.2376 6.23216C11.5196 5.84968 11.9062 5.56509 12.3975 5.37831C12.0245 5.18261 11.7334 4.91578 11.5242 4.57783C11.324 4.23987 11.224 3.86181 11.224 3.4438C11.224 2.93683 11.3831 2.4743 11.7016 2.0563C12.0199 1.63829 12.502 1.30476 13.1479 1.05569C13.7938 0.806621 14.5852 0.682129 15.5222 0.682129C16.1407 0.682129 16.7456 0.744417 17.337 0.86891C17.9282 0.984563 18.4422 1.14466 18.8789 1.3492L18.2648 3.00354C17.4279 2.62106 16.541 2.42986 15.6041 2.42986C14.8945 2.42986 14.3577 2.53659 13.9939 2.75005C13.6392 2.95459 13.4618 3.23476 13.4618 3.59056C13.4618 3.91968 13.58 4.17316 13.8166 4.35102C14.0622 4.52004 14.4306 4.60451 14.9218 4.60451H17.528V6.31221H14.7854C14.2304 6.31221 13.8029 6.4056 13.5027 6.59238C13.2025 6.77916 13.0524 7.05041 13.0524 7.40621C13.0524 7.77977 13.2435 8.07328 13.6255 8.28674C14.0166 8.49128 14.6125 8.5936 15.413 8.5936C15.977 8.5936 16.541 8.52247 17.105 8.38013C17.669 8.22896 18.1466 8.01991 18.5377 7.75308L19.22 9.38074ZM31.4187 0.682129C32.5469 0.682129 33.4245 1.00674 34.0522 1.65605C34.6798 2.29644 34.9937 3.22592 34.9937 4.44441V10.1812H32.7832V4.51112C32.7832 3.85297 32.6058 3.35934 32.251 3.03022C31.9056 2.69226 31.446 2.52325 30.8729 2.52325C30.2452 2.52325 29.7446 2.7011 29.3719 3.0569C28.9992 3.40378 28.8125 3.93302 28.8125 4.64453V10.1812H26.602V4.51112C26.602 3.85297 26.4382 3.35934 26.1107 3.03022C25.7833 2.69226 25.3372 2.52325 24.7735 2.52325C24.1548 2.52325 23.6591 2.7011 23.2861 3.0569C22.9131 3.40378 22.7266 3.93302 22.7266 4.64453V10.1812H20.5161V0.842226H22.6584V1.98959C22.9495 1.57159 23.3361 1.25139 23.8182 1.02901C24.3002 0.797783 24.8554 0.682129 25.4831 0.682129C26.138 0.682129 26.7111 0.802203 27.2024 1.04235C27.6936 1.27357 28.0714 1.61161 28.3349 2.0563C28.6624 1.61161 29.0896 1.27357 29.6175 1.04235C30.1539 0.802203 30.7543 0.682129 31.4187 0.682129ZM0.418396 14.0169H3.67274C4.45051 14.0169 5.13617 14.1636 5.72973 14.4571C6.33011 14.744 6.79405 15.1509 7.12153 15.6779C7.45583 16.2049 7.62298 16.8186 7.62298 17.519C7.62298 18.2194 7.45583 18.8331 7.12153 19.3601C6.79405 19.8871 6.33011 20.2974 5.72973 20.5909C5.13617 20.8777 4.45051 21.0211 3.67274 21.0211H0.418396V14.0169ZM3.59087 19.6903C4.30724 19.6903 4.87692 19.4969 5.29991 19.11C5.72973 18.7164 5.94464 18.1861 5.94464 17.519C5.94464 16.8519 5.72973 16.325 5.29991 15.938C4.87692 15.5445 4.30724 15.3477 3.59087 15.3477H2.07627V19.6903H3.59087ZM8.76064 15.6379H10.3571V21.0211H8.76064V15.6379ZM9.55888 14.8874C9.26551 14.8874 9.02672 14.804 8.84251 14.6373C8.6583 14.4705 8.5662 14.2637 8.5662 14.0169C8.5662 13.7701 8.6583 13.5633 8.84251 13.3965C9.02672 13.2297 9.26551 13.1464 9.55888 13.1464C9.85224 13.1464 10.091 13.2264 10.2752 13.3865C10.4594 13.5466 10.5515 13.7467 10.5515 13.9869C10.5515 14.247 10.4594 14.4638 10.2752 14.6373C10.091 14.804 9.85224 14.8874 9.55888 14.8874ZM17.5185 15.6379V20.1206C17.5185 21.1079 17.2559 21.8416 16.7305 22.3219C16.2052 22.8022 15.4377 23.0424 14.4279 23.0424C13.8958 23.0424 13.3909 22.979 12.9133 22.8522C12.4358 22.7255 12.0401 22.5421 11.7262 22.3019L12.3607 21.1812C12.5927 21.368 12.886 21.5148 13.2408 21.6215C13.5956 21.7349 13.9504 21.7916 14.3051 21.7916C14.8578 21.7916 15.2637 21.6682 15.523 21.4214C15.789 21.1812 15.9221 20.8143 15.9221 20.3207V20.0906C15.5059 20.5375 14.926 20.761 14.1823 20.761C13.6775 20.761 13.2135 20.6542 12.7905 20.4408C12.3744 20.2206 12.0435 19.9138 11.7979 19.5202C11.5522 19.1267 11.4294 18.673 11.4294 18.1594C11.4294 17.6458 11.5522 17.1921 11.7979 16.7986C12.0435 16.405 12.3744 16.1015 12.7905 15.888C13.2135 15.6679 13.6775 15.5578 14.1823 15.5578C14.9806 15.5578 15.5878 15.8146 16.0039 16.3283V15.6379H17.5185ZM14.4996 19.4802C14.9226 19.4802 15.2671 19.3601 15.5332 19.12C15.8061 18.8732 15.9425 18.553 15.9425 18.1594C15.9425 17.7658 15.8061 17.449 15.5332 17.2088C15.2671 16.962 14.9226 16.8386 14.4996 16.8386C14.0766 16.8386 13.7286 16.962 13.4557 17.2088C13.1828 17.449 13.0464 17.7658 13.0464 18.1594C13.0464 18.553 13.1828 18.8732 13.4557 19.12C13.7286 19.3601 14.0766 19.4802 14.4996 19.4802ZM19.0044 15.6379H20.6009V21.0211H19.0044V15.6379ZM19.8026 14.8874C19.5093 14.8874 19.2705 14.804 19.0863 14.6373C18.9021 14.4705 18.81 14.2637 18.81 14.0169C18.81 13.7701 18.9021 13.5633 19.0863 13.3965C19.2705 13.2297 19.5093 13.1464 19.8026 13.1464C20.096 13.1464 20.3348 13.2264 20.519 13.3865C20.7032 13.5466 20.7953 13.7467 20.7953 13.9869C20.7953 14.247 20.7032 14.4638 20.519 14.6373C20.3348 14.804 20.096 14.8874 19.8026 14.8874ZM25.3986 20.761C25.2417 20.8744 25.0473 20.9611 24.8153 21.0211C24.5902 21.0745 24.3548 21.1012 24.1088 21.1012C23.4471 21.1012 22.9388 20.9377 22.584 20.6109C22.2292 20.284 22.0519 19.8037 22.0519 19.17V14.4471H23.6483V15.7579H25.0098V16.9587H23.6483V19.15C23.6483 19.3768 23.7063 19.5536 23.8223 19.6803C23.9383 19.8004 24.1054 19.8604 24.3241 19.8604C24.5697 19.8604 24.788 19.7937 24.9791 19.6603L25.3986 20.761ZM31.718 15.6379V21.0211H30.1932V20.4008C29.7975 20.8677 29.2244 21.1012 28.4739 21.1012C27.9554 21.1012 27.4846 20.9878 27.0616 20.761C26.6455 20.5342 26.318 20.2106 26.0792 19.7904C25.8404 19.3701 25.721 18.8832 25.721 18.3295C25.721 17.7758 25.8404 17.2889 26.0792 16.8686C26.318 16.4484 26.6455 16.1248 27.0616 15.898C27.4846 15.6712 27.9554 15.5578 28.4739 15.5578C29.1766 15.5578 29.7258 15.7746 30.1215 16.2082V15.6379H31.718ZM28.7502 19.8204C29.1527 19.8204 29.487 19.687 29.7531 19.4202C30.0192 19.1467 30.1522 18.7831 30.1522 18.3295C30.1522 17.8759 30.0192 17.5157 29.7531 17.2488C29.487 16.9753 29.1527 16.8386 28.7502 16.8386C28.3409 16.8386 28.0031 16.9753 27.7371 17.2488C27.471 17.5157 27.3379 17.8759 27.3379 18.3295C27.3379 18.7831 27.471 19.1467 27.7371 19.4202C28.0031 19.687 28.3409 19.8204 28.7502 19.8204ZM35.1711 21.1012C34.5502 21.1012 34.0658 20.9411 33.7179 20.6209C33.3699 20.294 33.1959 19.8337 33.1959 19.2401V13.5966H34.7924V19.15C34.7924 19.3768 34.8504 19.5536 34.9664 19.6803C35.0892 19.8004 35.2598 19.8604 35.4781 19.8604C35.5599 19.8604 35.6418 19.8504 35.7237 19.8304C35.8124 19.8104 35.8806 19.7871 35.9284 19.7604L36 20.9711C35.7339 21.0578 35.4576 21.1012 35.1711 21.1012Z" fill="black"/>
</svg>
