<svg width="26" height="21" viewBox="0 0 26 21" fill="none" xmlns="http://www.w3.org/2000/svg">
<path d="M23.3253 3.63142C22.7875 3.77967 22.3615 3.75626 22.3615 3.75626L22.3797 3.65483C22.8811 3.25428 24.1462 2.02142 24.3125 1.44401C24.3853 1.19431 24.2995 1.10848 24.2995 1.10068L22.6836 1.78733L21.3327 2.39856C20.4 1.41019 18.9868 0.780762 17.4098 0.780762C14.6015 0.780762 12.3231 2.7731 12.3231 5.23101C12.3231 5.68098 12.3906 6.50028 12.5309 6.91123C12.5309 7.04128 12.5361 6.78118 12.5309 6.91123C10.7227 6.86181 8.4028 6.11794 6.33744 5.06975C2.26389 3.00459 2.0093 1.57406 2.0093 1.57406C1.3702 2.25291 1.04027 4.50534 1.68715 6.27139C2.10282 7.40281 3.52908 8.41719 3.52908 8.41719C3.52908 8.41719 2.88999 8.42759 2.22233 8.20391C1.55466 7.97763 1.30006 7.75394 1.30006 7.75394C0.902575 8.7241 1.70014 10.4563 3.07964 11.6996C3.8824 12.4253 5.35023 12.8804 5.35023 12.8804L3.05886 12.9455C2.92896 15.1719 7.72993 16.4984 7.72993 16.4984C6.32185 17.583 4.69035 18.241 2.93935 18.241C2.03267 18.241 1.15458 18.1058 0.323242 17.8561C2.6354 19.7626 5.60743 21.0813 8.83925 20.9122C17.4124 20.4596 22.2524 13.0833 22.4836 5.83703L22.494 5.85264C22.494 5.85264 22.8966 5.65237 23.754 4.79145C24.6113 3.93053 25.1464 2.92656 25.1464 2.92656C25.1464 2.92656 23.8631 3.48316 23.3253 3.63142Z" fill="white"/>
</svg>
